<svg width="56" height="54" viewBox="0 0 56 54" fill="none" xmlns="http://www.w3.org/2000/svg">
<path d="M16.6267 10H39.4196" stroke="black" stroke-width="4" stroke-linecap="round"/>
<path d="M19.6133 14.4014C19.6762 13.1439 18.0676 11.7291 17.2555 11.179L38.7123 11.4933C36.5902 12.5937 36.6688 13.7726 36.5902 14.5586C36.5116 15.3446 37.1403 16.5235 38.2407 16.9951C39.121 17.3723 40.0222 17.9906 40.3628 18.2526L36.1186 20.4533L35.9614 25.0905L32.6604 28.4701L28.4162 29.3347L24.7221 32.2427V32.7929L32.8961 30.9066L35.254 33.0287L34.7039 37.9803H35.4112L36.1186 32.7929L35.0182 29.8849L38.3193 26.1122L38.5551 22.261L42.8779 20.1389C45 21.6323 47.2007 26.5838 45.2358 32.3999C43.6638 37.0528 39.2362 40.9931 37.2189 42.3817H18.8274C14.929 40.3696 12.1205 35.4128 11.2036 33.1859L17.4127 30.3564L19.0632 36.4869L25.2723 39.1592L27.3944 37.4301L21.1853 34.3648L19.0632 26.741L10.339 30.5922C8.45268 22.2296 14.8976 17.8334 18.3558 16.6807C18.7488 16.4449 19.5505 15.6589 19.6133 14.4014Z" fill="black"/>
<path d="M19.7705 43.4819H36.3543" stroke="black" stroke-width="3" stroke-linecap="round"/>
</svg>
